<mxfile host="65bd71144e">
    <diagram id="ejrSt0UVNnm4ENeSfn7S" name="Page-1">
        <mxGraphModel dx="982" dy="657" grid="1" gridSize="10" guides="1" tooltips="1" connect="1" arrows="1" fold="1" page="1" pageScale="1" pageWidth="850" pageHeight="1100" math="0" shadow="0">
            <root>
                <mxCell id="0"/>
                <mxCell id="1" parent="0"/>
                <mxCell id="mQHsiTuYT0Qqiv6NMiaD-1" value="" style="rounded=1;whiteSpace=wrap;html=1;" parent="1" vertex="1">
                    <mxGeometry x="40" y="190" width="350" height="450" as="geometry"/>
                </mxCell>
                <mxCell id="mQHsiTuYT0Qqiv6NMiaD-2" value="" style="rounded=1;whiteSpace=wrap;html=1;" parent="1" vertex="1">
                    <mxGeometry x="470" y="190" width="350" height="450" as="geometry"/>
                </mxCell>
                <mxCell id="mQHsiTuYT0Qqiv6NMiaD-3" value="" style="rounded=1;whiteSpace=wrap;html=1;" parent="1" vertex="1">
                    <mxGeometry x="900" y="190" width="350" height="450" as="geometry"/>
                </mxCell>
                <mxCell id="mQHsiTuYT0Qqiv6NMiaD-41" style="edgeStyle=orthogonalEdgeStyle;rounded=0;orthogonalLoop=1;jettySize=auto;html=1;exitX=0;exitY=0.5;exitDx=0;exitDy=0;entryX=0;entryY=0.5;entryDx=0;entryDy=0;" parent="1" source="mQHsiTuYT0Qqiv6NMiaD-4" target="mQHsiTuYT0Qqiv6NMiaD-6" edge="1">
                    <mxGeometry relative="1" as="geometry"/>
                </mxCell>
                <mxCell id="mQHsiTuYT0Qqiv6NMiaD-4" value="Addon" style="rounded=0;whiteSpace=wrap;html=1;" parent="1" vertex="1">
                    <mxGeometry x="140" y="290" width="120" height="60" as="geometry"/>
                </mxCell>
                <mxCell id="mQHsiTuYT0Qqiv6NMiaD-42" style="edgeStyle=orthogonalEdgeStyle;rounded=0;orthogonalLoop=1;jettySize=auto;html=1;exitX=0.5;exitY=1;exitDx=0;exitDy=0;" parent="1" source="mQHsiTuYT0Qqiv6NMiaD-5" target="mQHsiTuYT0Qqiv6NMiaD-6" edge="1">
                    <mxGeometry relative="1" as="geometry"/>
                </mxCell>
                <mxCell id="mQHsiTuYT0Qqiv6NMiaD-5" value="Installer" style="rounded=0;whiteSpace=wrap;html=1;" parent="1" vertex="1">
                    <mxGeometry x="140" y="400" width="120" height="60" as="geometry"/>
                </mxCell>
                <mxCell id="mQHsiTuYT0Qqiv6NMiaD-44" style="edgeStyle=orthogonalEdgeStyle;rounded=0;orthogonalLoop=1;jettySize=auto;html=1;exitX=1;exitY=0.5;exitDx=0;exitDy=0;entryX=0;entryY=0.5;entryDx=0;entryDy=0;fillColor=#d5e8d4;strokeColor=#82b366;strokeWidth=2;" parent="1" source="mQHsiTuYT0Qqiv6NMiaD-6" target="mQHsiTuYT0Qqiv6NMiaD-12" edge="1">
                    <mxGeometry relative="1" as="geometry"/>
                </mxCell>
                <mxCell id="mQHsiTuYT0Qqiv6NMiaD-45" value="optional cacerts" style="edgeLabel;html=1;align=center;verticalAlign=middle;resizable=0;points=[];" parent="mQHsiTuYT0Qqiv6NMiaD-44" vertex="1" connectable="0">
                    <mxGeometry x="-0.2074" y="-1" relative="1" as="geometry">
                        <mxPoint y="-11" as="offset"/>
                    </mxGeometry>
                </mxCell>
                <mxCell id="mQHsiTuYT0Qqiv6NMiaD-6" value="Operator" style="rounded=0;whiteSpace=wrap;html=1;" parent="1" vertex="1">
                    <mxGeometry x="140" y="510" width="120" height="60" as="geometry"/>
                </mxCell>
                <mxCell id="mQHsiTuYT0Qqiv6NMiaD-7" value="&lt;font style=&quot;font-size: 16px&quot;&gt;operators&lt;/font&gt;" style="text;html=1;strokeColor=none;fillColor=none;align=center;verticalAlign=middle;whiteSpace=wrap;rounded=0;" parent="1" vertex="1">
                    <mxGeometry x="80" y="210" width="120" height="20" as="geometry"/>
                </mxCell>
                <mxCell id="mQHsiTuYT0Qqiv6NMiaD-8" value="&lt;font style=&quot;font-size: 16px&quot;&gt;istio-system&lt;/font&gt;" style="text;html=1;strokeColor=none;fillColor=none;align=center;verticalAlign=middle;whiteSpace=wrap;rounded=0;" parent="1" vertex="1">
                    <mxGeometry x="530" y="210" width="100" height="20" as="geometry"/>
                </mxCell>
                <mxCell id="mQHsiTuYT0Qqiv6NMiaD-9" value="&lt;font style=&quot;font-size: 16px&quot;&gt;users-namespace&lt;/font&gt;" style="text;html=1;strokeColor=none;fillColor=none;align=center;verticalAlign=middle;whiteSpace=wrap;rounded=0;" parent="1" vertex="1">
                    <mxGeometry x="960" y="210" width="160" height="20" as="geometry"/>
                </mxCell>
                <mxCell id="mQHsiTuYT0Qqiv6NMiaD-10" value="ingress-gateway" style="rounded=0;whiteSpace=wrap;html=1;" parent="1" vertex="1">
                    <mxGeometry x="530" y="290" width="120" height="60" as="geometry"/>
                </mxCell>
                <mxCell id="mQHsiTuYT0Qqiv6NMiaD-11" value="egress-gateway" style="rounded=0;whiteSpace=wrap;html=1;" parent="1" vertex="1">
                    <mxGeometry x="530" y="400" width="120" height="60" as="geometry"/>
                </mxCell>
                <mxCell id="mQHsiTuYT0Qqiv6NMiaD-69" style="edgeStyle=orthogonalEdgeStyle;rounded=0;orthogonalLoop=1;jettySize=auto;html=1;exitX=1;exitY=0.5;exitDx=0;exitDy=0;entryX=0;entryY=0.5;entryDx=0;entryDy=0;fillColor=#d5e8d4;strokeColor=#82b366;strokeWidth=2;" parent="1" source="mQHsiTuYT0Qqiv6NMiaD-12" target="mQHsiTuYT0Qqiv6NMiaD-67" edge="1">
                    <mxGeometry relative="1" as="geometry"/>
                </mxCell>
                <mxCell id="mQHsiTuYT0Qqiv6NMiaD-12" value="istiod" style="rounded=0;whiteSpace=wrap;html=1;" parent="1" vertex="1">
                    <mxGeometry x="530" y="510" width="120" height="60" as="geometry"/>
                </mxCell>
                <mxCell id="mQHsiTuYT0Qqiv6NMiaD-36" value="&lt;font color=&quot;#ffffff&quot;&gt;istio-ca-secret&lt;br&gt;cacerts&lt;br&gt;&lt;/font&gt;" style="rounded=1;whiteSpace=wrap;html=1;fillColor=#FF3333;" parent="1" vertex="1">
                    <mxGeometry x="690" y="389" width="120" height="90" as="geometry"/>
                </mxCell>
                <mxCell id="mQHsiTuYT0Qqiv6NMiaD-37" value="Secret" style="text;html=1;strokeColor=none;fillColor=none;align=center;verticalAlign=middle;whiteSpace=wrap;rounded=0;" parent="1" vertex="1">
                    <mxGeometry x="700" y="269" width="100" height="20" as="geometry"/>
                </mxCell>
                <mxCell id="mQHsiTuYT0Qqiv6NMiaD-46" value="" style="endArrow=classic;html=1;exitX=0.5;exitY=0;exitDx=0;exitDy=0;entryX=0;entryY=0.5;entryDx=0;entryDy=0;fillColor=#d5e8d4;strokeColor=#82b366;strokeWidth=2;" parent="1" source="mQHsiTuYT0Qqiv6NMiaD-12" target="mQHsiTuYT0Qqiv6NMiaD-36" edge="1">
                    <mxGeometry width="50" height="50" relative="1" as="geometry">
                        <mxPoint x="620" y="510" as="sourcePoint"/>
                        <mxPoint x="670" y="460" as="targetPoint"/>
                        <Array as="points">
                            <mxPoint x="590" y="480"/>
                            <mxPoint x="670" y="480"/>
                        </Array>
                    </mxGeometry>
                </mxCell>
                <mxCell id="mQHsiTuYT0Qqiv6NMiaD-47" value="istio-ca-secret" style="edgeLabel;html=1;align=center;verticalAlign=middle;resizable=0;points=[];" parent="mQHsiTuYT0Qqiv6NMiaD-46" vertex="1" connectable="0">
                    <mxGeometry x="-0.4811" relative="1" as="geometry">
                        <mxPoint x="18" y="-10" as="offset"/>
                    </mxGeometry>
                </mxCell>
                <mxCell id="mQHsiTuYT0Qqiv6NMiaD-51" value="" style="rounded=1;whiteSpace=wrap;html=1;fillColor=#fff2cc;strokeColor=#d6b656;" parent="1" vertex="1">
                    <mxGeometry x="1115" y="285" width="130" height="260" as="geometry"/>
                </mxCell>
                <mxCell id="mQHsiTuYT0Qqiv6NMiaD-50" value="&lt;font color=&quot;#ffffff&quot;&gt;Root CA&lt;/font&gt;" style="rounded=1;whiteSpace=wrap;html=1;fillColor=#FF3333;" parent="1" vertex="1">
                    <mxGeometry x="560" y="560" width="60" height="10" as="geometry"/>
                </mxCell>
                <mxCell id="mQHsiTuYT0Qqiv6NMiaD-26" value="&lt;font color=&quot;#ffffff&quot;&gt;istio-ca-root-cert&lt;/font&gt;" style="rounded=1;whiteSpace=wrap;html=1;fillColor=#FF3333;" parent="1" vertex="1">
                    <mxGeometry x="1120" y="310" width="120" height="90" as="geometry"/>
                </mxCell>
                <mxCell id="mQHsiTuYT0Qqiv6NMiaD-33" value="&lt;font color=&quot;#ffffff&quot;&gt;istio-token&lt;/font&gt;" style="rounded=1;whiteSpace=wrap;html=1;fillColor=#FF3333;" parent="1" vertex="1">
                    <mxGeometry x="1120" y="440" width="120" height="90" as="geometry"/>
                </mxCell>
                <mxCell id="mQHsiTuYT0Qqiv6NMiaD-34" value="ConfigMap" style="text;html=1;strokeColor=none;fillColor=none;align=center;verticalAlign=middle;whiteSpace=wrap;rounded=0;" parent="1" vertex="1">
                    <mxGeometry x="1130" y="290" width="100" height="20" as="geometry"/>
                </mxCell>
                <mxCell id="mQHsiTuYT0Qqiv6NMiaD-35" value="Secret" style="text;html=1;strokeColor=none;fillColor=none;align=center;verticalAlign=middle;whiteSpace=wrap;rounded=0;" parent="1" vertex="1">
                    <mxGeometry x="1130" y="420" width="100" height="20" as="geometry"/>
                </mxCell>
                <mxCell id="mQHsiTuYT0Qqiv6NMiaD-54" value="credentials connect istiod" style="text;html=1;strokeColor=none;fillColor=none;align=center;verticalAlign=middle;whiteSpace=wrap;rounded=0;" parent="1" vertex="1">
                    <mxGeometry x="1095" y="250" width="170" height="20" as="geometry"/>
                </mxCell>
                <mxCell id="mQHsiTuYT0Qqiv6NMiaD-57" value="" style="group" parent="1" vertex="1" connectable="0">
                    <mxGeometry x="920" y="440" width="170" height="150" as="geometry"/>
                </mxCell>
                <mxCell id="mQHsiTuYT0Qqiv6NMiaD-21" value="" style="rounded=1;whiteSpace=wrap;html=1;" parent="mQHsiTuYT0Qqiv6NMiaD-57" vertex="1">
                    <mxGeometry width="170" height="150" as="geometry"/>
                </mxCell>
                <mxCell id="mQHsiTuYT0Qqiv6NMiaD-22" value="istio-sidecar&lt;br&gt;&lt;br&gt;&lt;br&gt;" style="rounded=0;whiteSpace=wrap;html=1;align=center;" parent="mQHsiTuYT0Qqiv6NMiaD-57" vertex="1">
                    <mxGeometry x="10" y="10" width="150" height="70" as="geometry"/>
                </mxCell>
                <mxCell id="mQHsiTuYT0Qqiv6NMiaD-23" value="workload" style="rounded=0;whiteSpace=wrap;html=1;" parent="mQHsiTuYT0Qqiv6NMiaD-57" vertex="1">
                    <mxGeometry x="10" y="90" width="150" height="50" as="geometry"/>
                </mxCell>
                <mxCell id="mQHsiTuYT0Qqiv6NMiaD-24" value="&lt;font color=&quot;#ffffff&quot;&gt;CA&lt;/font&gt;" style="rounded=1;whiteSpace=wrap;html=1;fillColor=#FF3333;" parent="mQHsiTuYT0Qqiv6NMiaD-57" vertex="1">
                    <mxGeometry x="17" y="45" width="60" height="10" as="geometry"/>
                </mxCell>
                <mxCell id="mQHsiTuYT0Qqiv6NMiaD-25" value="&lt;font color=&quot;#ffffff&quot;&gt;priv-key&lt;/font&gt;" style="rounded=1;whiteSpace=wrap;html=1;fillColor=#FF3333;" parent="mQHsiTuYT0Qqiv6NMiaD-57" vertex="1">
                    <mxGeometry x="92" y="45" width="60" height="10" as="geometry"/>
                </mxCell>
                <mxCell id="mQHsiTuYT0Qqiv6NMiaD-55" value="policies" style="rounded=1;whiteSpace=wrap;html=1;fillColor=#ffe6cc;strokeColor=#d79b00;" parent="mQHsiTuYT0Qqiv6NMiaD-57" vertex="1">
                    <mxGeometry x="29" y="60" width="48" height="20" as="geometry"/>
                </mxCell>
                <mxCell id="mQHsiTuYT0Qqiv6NMiaD-56" value="policies" style="rounded=1;whiteSpace=wrap;html=1;fillColor=#ffe6cc;strokeColor=#d79b00;" parent="mQHsiTuYT0Qqiv6NMiaD-57" vertex="1">
                    <mxGeometry x="92" y="60" width="48" height="20" as="geometry"/>
                </mxCell>
                <mxCell id="mQHsiTuYT0Qqiv6NMiaD-84" value="" style="endArrow=classic;startArrow=classic;html=1;strokeColor=#FF0000;strokeWidth=2;exitX=1;exitY=0.5;exitDx=0;exitDy=0;entryX=1;entryY=0.25;entryDx=0;entryDy=0;" parent="mQHsiTuYT0Qqiv6NMiaD-57" source="mQHsiTuYT0Qqiv6NMiaD-23" target="mQHsiTuYT0Qqiv6NMiaD-22" edge="1">
                    <mxGeometry width="50" height="50" relative="1" as="geometry">
                        <mxPoint x="-110" y="30" as="sourcePoint"/>
                        <mxPoint x="-60" y="-20" as="targetPoint"/>
                        <Array as="points">
                            <mxPoint x="180" y="115"/>
                            <mxPoint x="180" y="28"/>
                        </Array>
                    </mxGeometry>
                </mxCell>
                <mxCell id="mQHsiTuYT0Qqiv6NMiaD-58" value="" style="group" parent="1" vertex="1" connectable="0">
                    <mxGeometry x="920" y="250" width="170" height="150" as="geometry"/>
                </mxCell>
                <mxCell id="mQHsiTuYT0Qqiv6NMiaD-59" value="" style="rounded=1;whiteSpace=wrap;html=1;" parent="mQHsiTuYT0Qqiv6NMiaD-58" vertex="1">
                    <mxGeometry width="170" height="150" as="geometry"/>
                </mxCell>
                <mxCell id="mQHsiTuYT0Qqiv6NMiaD-60" value="istio-sidecar&lt;br&gt;&lt;br&gt;&lt;br&gt;" style="rounded=0;whiteSpace=wrap;html=1;align=center;" parent="mQHsiTuYT0Qqiv6NMiaD-58" vertex="1">
                    <mxGeometry x="10" y="10" width="150" height="70" as="geometry"/>
                </mxCell>
                <mxCell id="mQHsiTuYT0Qqiv6NMiaD-61" value="workload" style="rounded=0;whiteSpace=wrap;html=1;" parent="mQHsiTuYT0Qqiv6NMiaD-58" vertex="1">
                    <mxGeometry x="10" y="90" width="150" height="50" as="geometry"/>
                </mxCell>
                <mxCell id="mQHsiTuYT0Qqiv6NMiaD-62" value="&lt;font color=&quot;#ffffff&quot;&gt;CA&lt;/font&gt;" style="rounded=1;whiteSpace=wrap;html=1;fillColor=#FF3333;" parent="mQHsiTuYT0Qqiv6NMiaD-58" vertex="1">
                    <mxGeometry x="17" y="45" width="60" height="10" as="geometry"/>
                </mxCell>
                <mxCell id="mQHsiTuYT0Qqiv6NMiaD-63" value="&lt;font color=&quot;#ffffff&quot;&gt;priv-key&lt;/font&gt;" style="rounded=1;whiteSpace=wrap;html=1;fillColor=#FF3333;" parent="mQHsiTuYT0Qqiv6NMiaD-58" vertex="1">
                    <mxGeometry x="92" y="45" width="60" height="10" as="geometry"/>
                </mxCell>
                <mxCell id="mQHsiTuYT0Qqiv6NMiaD-64" value="policies" style="rounded=1;whiteSpace=wrap;html=1;fillColor=#ffe6cc;strokeColor=#d79b00;" parent="mQHsiTuYT0Qqiv6NMiaD-58" vertex="1">
                    <mxGeometry x="29" y="60" width="48" height="20" as="geometry"/>
                </mxCell>
                <mxCell id="mQHsiTuYT0Qqiv6NMiaD-65" value="policies" style="rounded=1;whiteSpace=wrap;html=1;fillColor=#ffe6cc;strokeColor=#d79b00;" parent="mQHsiTuYT0Qqiv6NMiaD-58" vertex="1">
                    <mxGeometry x="92" y="60" width="48" height="20" as="geometry"/>
                </mxCell>
                <mxCell id="mQHsiTuYT0Qqiv6NMiaD-66" value="&lt;font color=&quot;#ffffff&quot;&gt;istio-token&lt;br&gt;&lt;/font&gt;" style="rounded=1;whiteSpace=wrap;html=1;fillColor=#FF3333;" parent="1" vertex="1">
                    <mxGeometry x="690" y="289" width="120" height="90" as="geometry"/>
                </mxCell>
                <mxCell id="mQHsiTuYT0Qqiv6NMiaD-67" value="virtualservices&lt;br&gt;policies&lt;br&gt;..." style="rounded=1;whiteSpace=wrap;html=1;fillColor=#FFFFFF;dashed=1;" parent="1" vertex="1">
                    <mxGeometry x="690" y="510" width="120" height="60" as="geometry"/>
                </mxCell>
                <mxCell id="mQHsiTuYT0Qqiv6NMiaD-68" value="istio CRDs" style="text;html=1;strokeColor=none;fillColor=none;align=center;verticalAlign=middle;whiteSpace=wrap;rounded=0;" parent="1" vertex="1">
                    <mxGeometry x="700" y="490" width="100" height="20" as="geometry"/>
                </mxCell>
                <mxCell id="mQHsiTuYT0Qqiv6NMiaD-70" value="" style="endArrow=classic;html=1;exitX=1;exitY=0.5;exitDx=0;exitDy=0;entryX=0;entryY=0.5;entryDx=0;entryDy=0;strokeColor=#82b366;strokeWidth=2;fillColor=#d5e8d4;" parent="1" source="mQHsiTuYT0Qqiv6NMiaD-12" target="mQHsiTuYT0Qqiv6NMiaD-24" edge="1">
                    <mxGeometry width="50" height="50" relative="1" as="geometry">
                        <mxPoint x="730" y="470" as="sourcePoint"/>
                        <mxPoint x="780" y="420" as="targetPoint"/>
                        <Array as="points">
                            <mxPoint x="670" y="550"/>
                            <mxPoint x="670" y="690"/>
                            <mxPoint x="880" y="690"/>
                            <mxPoint x="880" y="490"/>
                        </Array>
                    </mxGeometry>
                </mxCell>
                <mxCell id="mQHsiTuYT0Qqiv6NMiaD-72" value="" style="endArrow=classic;html=1;exitX=1;exitY=0.5;exitDx=0;exitDy=0;entryX=0;entryY=0.5;entryDx=0;entryDy=0;fillColor=#d5e8d4;strokeColor=#82b366;strokeWidth=2;" parent="1" source="mQHsiTuYT0Qqiv6NMiaD-12" target="mQHsiTuYT0Qqiv6NMiaD-55" edge="1">
                    <mxGeometry width="50" height="50" relative="1" as="geometry">
                        <mxPoint x="710" y="520" as="sourcePoint"/>
                        <mxPoint x="760" y="470" as="targetPoint"/>
                        <Array as="points">
                            <mxPoint x="670" y="550"/>
                            <mxPoint x="670" y="690"/>
                            <mxPoint x="880" y="690"/>
                            <mxPoint x="880" y="510"/>
                        </Array>
                    </mxGeometry>
                </mxCell>
                <mxCell id="mQHsiTuYT0Qqiv6NMiaD-74" value="" style="endArrow=classic;startArrow=classic;html=1;strokeColor=#FF0000;strokeWidth=2;entryX=0.5;entryY=0;entryDx=0;entryDy=0;exitX=0.5;exitY=0;exitDx=0;exitDy=0;" parent="1" source="mQHsiTuYT0Qqiv6NMiaD-60" target="mQHsiTuYT0Qqiv6NMiaD-22" edge="1">
                    <mxGeometry width="50" height="50" relative="1" as="geometry">
                        <mxPoint x="710" y="520" as="sourcePoint"/>
                        <mxPoint x="760" y="470" as="targetPoint"/>
                        <Array as="points">
                            <mxPoint x="1005" y="240"/>
                            <mxPoint x="910" y="240"/>
                            <mxPoint x="910" y="430"/>
                            <mxPoint x="1005" y="430"/>
                        </Array>
                    </mxGeometry>
                </mxCell>
                <mxCell id="mQHsiTuYT0Qqiv6NMiaD-75" value="mTLS" style="edgeLabel;html=1;align=center;verticalAlign=middle;resizable=0;points=[];" parent="mQHsiTuYT0Qqiv6NMiaD-74" vertex="1" connectable="0">
                    <mxGeometry x="0.3571" y="1" relative="1" as="geometry">
                        <mxPoint x="29" y="10" as="offset"/>
                    </mxGeometry>
                </mxCell>
                <mxCell id="mQHsiTuYT0Qqiv6NMiaD-77" value="Sign" style="text;html=1;strokeColor=none;fillColor=none;align=center;verticalAlign=middle;whiteSpace=wrap;rounded=0;dashed=1;" parent="1" vertex="1">
                    <mxGeometry x="880" y="470" width="40" height="20" as="geometry"/>
                </mxCell>
                <mxCell id="mQHsiTuYT0Qqiv6NMiaD-78" value="Dispatch" style="text;html=1;strokeColor=none;fillColor=none;align=center;verticalAlign=middle;whiteSpace=wrap;rounded=0;dashed=1;" parent="1" vertex="1">
                    <mxGeometry x="890" y="505" width="40" height="20" as="geometry"/>
                </mxCell>
                <mxCell id="mQHsiTuYT0Qqiv6NMiaD-80" value="" style="endArrow=classic;html=1;strokeColor=#82b366;strokeWidth=2;fillColor=#d5e8d4;" parent="1" edge="1">
                    <mxGeometry width="50" height="50" relative="1" as="geometry">
                        <mxPoint x="800" y="80" as="sourcePoint"/>
                        <mxPoint x="875" y="80" as="targetPoint"/>
                    </mxGeometry>
                </mxCell>
                <mxCell id="mQHsiTuYT0Qqiv6NMiaD-81" value="" style="endArrow=classic;html=1;strokeColor=#FF0000;strokeWidth=2;fillColor=#d5e8d4;" parent="1" edge="1">
                    <mxGeometry width="50" height="50" relative="1" as="geometry">
                        <mxPoint x="800" y="120" as="sourcePoint"/>
                        <mxPoint x="875" y="120" as="targetPoint"/>
                    </mxGeometry>
                </mxCell>
                <mxCell id="mQHsiTuYT0Qqiv6NMiaD-82" value="Control Plane Data flow" style="text;html=1;strokeColor=none;fillColor=none;align=left;verticalAlign=middle;whiteSpace=wrap;rounded=0;dashed=1;" parent="1" vertex="1">
                    <mxGeometry x="890" y="68" width="160" height="20" as="geometry"/>
                </mxCell>
                <mxCell id="mQHsiTuYT0Qqiv6NMiaD-83" value="Data Plane Data flow" style="text;html=1;strokeColor=none;fillColor=none;align=left;verticalAlign=middle;whiteSpace=wrap;rounded=0;dashed=1;" parent="1" vertex="1">
                    <mxGeometry x="890" y="110" width="160" height="20" as="geometry"/>
                </mxCell>
                <mxCell id="mQHsiTuYT0Qqiv6NMiaD-85" value="mTLS??" style="text;html=1;strokeColor=none;fillColor=none;align=center;verticalAlign=middle;whiteSpace=wrap;rounded=0;dashed=1;" parent="1" vertex="1">
                    <mxGeometry x="1100" y="550" width="40" height="20" as="geometry"/>
                </mxCell>
                <mxCell id="mQHsiTuYT0Qqiv6NMiaD-86" value="" style="endArrow=classic;startArrow=classic;html=1;strokeColor=#FF0000;strokeWidth=2;exitX=1;exitY=0.5;exitDx=0;exitDy=0;entryX=1;entryY=0.25;entryDx=0;entryDy=0;" parent="1" edge="1">
                    <mxGeometry width="50" height="50" relative="1" as="geometry">
                        <mxPoint x="1080" y="372.5" as="sourcePoint"/>
                        <mxPoint x="1080" y="285" as="targetPoint"/>
                        <Array as="points">
                            <mxPoint x="1100" y="372.5"/>
                            <mxPoint x="1100" y="285.5"/>
                        </Array>
                    </mxGeometry>
                </mxCell>
            </root>
        </mxGraphModel>
    </diagram>
</mxfile>